The Beguiled (1971)

Director: Don Siegel
Writers: Albert Maltz (screenplay), Irene Kamp (screenplay)
Stars: Clint Eastwood, Geraldine Page and Elizabeth Hartman

Sample of AVI included:
size: 12,362,924 bytes; duration: 1 min 2 sec.

 Close to the end of the American Civil War, injured Yankee soldier
 John McBurney is rescued on the verge of death by a twelve year
 old girl from an all-girl boarding school in Louisiana. At first
 the all-female staff and pupils are scared, but as John starts to recover,
 he charms them one by one and the sexually repressed atmosphere becomes
 filled with jealousy and deceit. A few of the girls go after him as well.

 After rejecting the headmistress for a younger girl, McBurney gets his
 comeuppance in the form of some painful Freudian symbolism — he falls
 down the stairs. Eventually his leg is amputated by the headmistress,
 so as to avoid gangrene. After going on a rampage that scares all of
 the women, he reforms and announces his intention to marry one of
 the teachers, but it is too late; he has alienated the youngest girl,
 the one who first found him, by killing her pet turtle after throwing it
 aside in a drunken rage. In response, she is coached to pick mushrooms that
 the headmistress and girls use to poison him.

============================================

General
Complete name                    : The_Beguiled_PAL.avi
Format                           : AVI
Format/Info                      : Audio Video Interleave
File size                        : 1.09 GiB
Duration                         : 1h 40mn
Overall bit rate                 : 1 553 Kbps
Writing application              : VirtualDubMod 1.5.10.2 (build 2540/release)
Writing library                  : VirtualDubMod build 2540/release

Video
ID                               : 0
Format                           : MPEG-4 Visual
Format settings, BVOP            : 1
Format settings, QPel            : No
Format settings, GMC             : No warppoints
Format settings, Matrix          : Default (H.263)
Muxing mode                      : Packed bitstream
Codec ID                         : DX50
Codec ID/Hint                    : DivX 5
Duration                         : 1h 40mn
Bit rate                         : 1 351 Kbps
Width                            : 704 pixels
Height                           : 368 pixels
Display aspect ratio             : 1.913
Frame rate                       : 25.000 fps
Color space                      : YUV
Chroma subsampling               : 4:2:0
Bit depth                        : 8 bits
Scan type                        : Progressive
Compression mode                 : Lossy
Bits/(Pixel*Frame)               : 0.209
Stream size                      : 971 MiB (87%)
Writing library                  : DivX 6.8.5 (UTC 2009-08-20)

Audio
ID                               : 1
Format                           : AC-3
Format/Info                      : Audio Coding 3
Mode extension                   : CM (complete main)
Codec ID                         : 2000
Duration                         : 1h 40mn
Bit rate mode                    : Constant
Bit rate                         : 192 Kbps
Channel(s)                       : 2 channels
Channel positions                : Front: L R
Sampling rate                    : 48.0 KHz
Bit depth                        : 16 bits
Compression mode                 : Lossy
Stream size                      : 138 MiB (12%)
Alignment                        : Split accross interleaves
Interleave, duration             : 40 ms (1.00 video frame)
Interleave, preload duration     : 500 ms
